<svg width="123" height="16" viewBox="0 0 123 16" fill="none" xmlns="http://www.w3.org/2000/svg">
<g clip-path="url(#clip0_3:6978)">
<path d="M4.32125 13.891H5.07725V12.757C6.98125 12.631 7.96125 11.301 7.96125 9.99897C7.96125 8.05297 6.46325 7.64697 5.07725 7.29697V3.88097C5.93125 4.06297 6.39325 4.69297 6.47725 5.29497H7.83525C7.69525 3.88097 6.67325 2.94297 5.07725 2.80297V1.64097H4.32125V2.80297C2.57125 2.91497 1.42325 3.99297 1.42325 5.50497C1.42325 7.43697 2.92125 7.84297 4.32125 8.20697V11.707C3.32725 11.553 2.86525 10.867 2.79525 10.139H1.43725C1.46525 11.623 2.64125 12.603 4.32125 12.757V13.891ZM6.68725 10.069C6.68725 10.909 6.11325 11.609 5.07725 11.721V8.41697C5.97325 8.68297 6.68725 9.07497 6.68725 10.069ZM2.72525 5.43497C2.72525 4.44097 3.38325 3.93697 4.32125 3.85297V7.08697C3.42525 6.80697 2.72525 6.42897 2.72525 5.43497ZM11.0242 2.53697V8.24897H12.2282C12.5642 7.45097 13.3062 6.91897 14.3282 6.91897C15.7982 6.91897 16.5402 7.75897 16.5402 9.20097C16.5402 10.587 15.8542 11.623 14.3142 11.623C13.1242 11.623 12.2982 10.993 12.0602 9.92897H10.8142C11.0662 11.567 12.2842 12.701 14.3002 12.701C16.6662 12.701 17.7582 11.133 17.7582 9.17297C17.7582 7.60497 16.9742 5.82697 14.5102 5.82697C13.5162 5.82697 12.6202 6.27497 12.2002 6.84897V3.65697H17.1142V2.53697H11.0242ZM19.9233 5.09897H21.1693C21.2953 4.11897 22.0093 3.44697 23.1993 3.44697C24.4173 3.44697 25.0613 4.11897 25.0613 5.08497C25.0613 6.26097 24.1513 6.77897 22.4573 6.79297H22.1213V7.85697H22.4433C24.2633 7.85697 25.2573 8.40297 25.2573 9.83097C25.2573 10.867 24.6133 11.665 23.2553 11.665C21.9113 11.665 21.1273 10.839 21.0013 9.76097H19.7693C19.9233 11.721 21.3513 12.743 23.2693 12.743C25.3833 12.743 26.4753 11.511 26.4753 9.94297C26.4753 8.48697 25.6773 7.61897 24.5013 7.33897V7.26897C25.5653 7.03097 26.2933 6.12097 26.2933 4.95897C26.2933 3.50297 25.2153 2.35497 23.2413 2.35497C21.3653 2.35497 20.0493 3.36297 19.9233 5.09897ZM33.5674 12.673H34.8274V10.419H36.2274V9.31297H34.8274V2.64897H33.3014L28.3874 9.45297V10.419H33.5674V12.673ZM29.8574 9.31297L33.6234 3.97897V9.31297H29.8574ZM37.1041 14.675H37.9581L39.5261 10.909H38.1261L37.1041 14.675ZM41.2475 5.09897H42.4935C42.6195 4.11897 43.3335 3.44697 44.5235 3.44697C45.7415 3.44697 46.3855 4.11897 46.3855 5.08497C46.3855 6.26097 45.4755 6.77897 43.7815 6.79297H43.4455V7.85697H43.7675C45.5875 7.85697 46.5815 8.40297 46.5815 9.83097C46.5815 10.867 45.9375 11.665 44.5795 11.665C43.2355 11.665 42.4515 10.839 42.3255 9.76097H41.0935C41.2475 11.721 42.6755 12.743 44.5935 12.743C46.7075 12.743 47.7995 11.511 47.7995 9.94297C47.7995 8.48697 47.0015 7.61897 45.8255 7.33897V7.26897C46.8895 7.03097 47.6175 6.12097 47.6175 4.95897C47.6175 3.50297 46.5395 2.35497 44.5655 2.35497C42.6895 2.35497 41.3735 3.36297 41.2475 5.09897ZM49.9916 5.09897H51.2376C51.3636 4.11897 52.0776 3.44697 53.2676 3.44697C54.4856 3.44697 55.1296 4.11897 55.1296 5.08497C55.1296 6.26097 54.2196 6.77897 52.5256 6.79297H52.1896V7.85697H52.5116C54.3316 7.85697 55.3256 8.40297 55.3256 9.83097C55.3256 10.867 54.6816 11.665 53.3236 11.665C51.9796 11.665 51.1956 10.839 51.0696 9.76097H49.8376C49.9916 11.721 51.4196 12.743 53.3376 12.743C55.4516 12.743 56.5436 11.511 56.5436 9.94297C56.5436 8.48697 55.7456 7.61897 54.5696 7.33897V7.26897C55.6336 7.03097 56.3616 6.12097 56.3616 4.95897C56.3616 3.50297 55.2836 2.35497 53.3096 2.35497C51.4336 2.35497 50.1176 3.36297 49.9916 5.09897Z" fill="#9098B1"/>
<path d="M0.583252 8.08097H57.3976V8.78097H0.583252V8.08097Z" fill="#9098B1"/>
<path d="M66.1293 12.533H73.1573V10.587H69.3773C71.0013 9.34097 73.0033 7.54897 73.0033 5.30897C73.0033 3.58697 71.9673 2.22897 69.6433 2.22897C67.7813 2.22897 66.1713 3.29297 66.1013 5.77097H68.4113C68.4113 4.80497 68.8313 4.24497 69.5453 4.24497C70.2733 4.24497 70.6093 4.72097 70.6093 5.46297C70.6093 7.18497 68.2993 8.96297 66.1293 10.755V12.533ZM79.4713 12.673H81.8653V10.853H83.0133V8.78097H81.8653V2.59297H79.1913L74.7673 8.92097V10.853H79.4713V12.673ZM77.2873 8.78097L79.6393 5.22497V8.78097H77.2873ZM84.4899 5.02897C84.4899 6.58297 85.4979 7.39497 86.8279 7.39497C88.1579 7.39497 89.1519 6.58297 89.1519 5.02897C89.1519 3.47497 88.1579 2.66297 86.8279 2.66297C85.4979 2.66297 84.4899 3.47497 84.4899 5.02897ZM86.8139 4.06297C87.2339 4.06297 87.4999 4.35697 87.4999 5.02897C87.4999 5.68697 87.2339 5.98097 86.8139 5.98097C86.3939 5.98097 86.1419 5.68697 86.1419 5.02897C86.1419 4.35697 86.3939 4.06297 86.8139 4.06297ZM86.2959 12.673H88.6059L93.9959 2.81697H91.6859L86.2959 12.673ZM91.1539 10.461C91.1539 12.015 92.1479 12.827 93.4779 12.827C94.8079 12.827 95.8019 12.015 95.8019 10.461C95.8019 8.89297 94.8079 8.09497 93.4779 8.09497C92.1479 8.09497 91.1539 8.89297 91.1539 10.461ZM93.4639 9.49497C93.8839 9.49497 94.1499 9.80297 94.1499 10.461C94.1499 11.119 93.8839 11.413 93.4639 11.413C93.0439 11.413 92.7919 11.119 92.7919 10.461C92.7919 9.80297 93.0439 9.49497 93.4639 9.49497ZM110.746 7.73097C110.746 4.77697 108.52 2.70497 105.72 2.70497C102.934 2.70497 100.666 4.77697 100.666 7.73097C100.666 10.685 102.934 12.771 105.72 12.771C108.506 12.771 110.746 10.685 110.746 7.73097ZM103.116 7.73097C103.116 5.98097 104.124 4.87497 105.72 4.87497C107.288 4.87497 108.31 5.98097 108.31 7.73097C108.31 9.45297 107.288 10.587 105.72 10.587C104.124 10.587 103.116 9.45297 103.116 7.73097ZM112.816 12.673H115.21V6.84897H116.498V4.86097H115.21V4.79097C115.21 3.96497 115.532 3.68497 116.456 3.74097V1.71097C114.076 1.58497 112.816 2.59297 112.816 4.63697V4.86097H111.948V6.84897H112.816V12.673ZM118.361 12.673H120.755V6.84897H122.043V4.86097H120.755V4.79097C120.755 3.96497 121.077 3.68497 122.001 3.74097V1.71097C119.621 1.58497 118.361 2.59297 118.361 4.63697V4.86097H117.493V6.84897H118.361V12.673Z" fill="#FB7181"/>
</g>
<defs>
<clipPath id="clip0_3:6978">
<rect width="122" height="15" fill="white" transform="translate(0.583252 0.672974)"/>
</clipPath>
</defs>
</svg>
