<svg width="77" height="33" viewBox="0 0 77 33" fill="none" xmlns="http://www.w3.org/2000/svg">
<path d="M5.57678 23.739H6.72878V22.281C9.57278 22.155 11.1208 20.445 11.1208 18.501C11.1208 15.711 8.65478 15.189 6.72878 14.649V11.859C7.23278 12.039 7.57478 12.453 7.64678 13.119H10.9408C10.7788 10.833 9.19478 9.57297 6.72878 9.37497V7.91697H5.57678V9.37497C3.12878 9.53697 1.23878 10.869 1.23878 13.119C1.23878 15.945 3.65078 16.485 5.57678 16.989V19.833C4.96478 19.635 4.60478 19.185 4.53278 18.447H1.25678C1.34678 20.769 3.12878 22.047 5.57678 22.263V23.739ZM7.89878 18.609C7.89878 19.275 7.44878 19.761 6.72878 19.887V17.331C7.43078 17.601 7.89878 17.961 7.89878 18.609ZM4.49678 12.975C4.49678 12.273 4.91078 11.877 5.57678 11.769V14.271C4.92878 13.983 4.49678 13.605 4.49678 12.975ZM13.4964 21.993H22.5324V19.491H17.6724C19.7604 17.889 22.3344 15.585 22.3344 12.705C22.3344 10.491 21.0024 8.74497 18.0144 8.74497C15.6204 8.74497 13.5504 10.113 13.4604 13.299H16.4304C16.4304 12.057 16.9704 11.337 17.8884 11.337C18.8244 11.337 19.2564 11.949 19.2564 12.903C19.2564 15.117 16.2864 17.403 13.4964 19.707V21.993ZM24.8556 18.321C24.9996 20.337 26.3856 22.227 29.2476 22.227C32.7756 22.227 33.8196 19.743 33.8196 15.261C33.8196 11.265 32.7756 8.72697 29.0316 8.72697C26.2416 8.72697 24.5136 10.455 24.5136 13.119C24.5136 15.909 26.2416 17.313 28.4916 17.313C29.6076 17.313 30.5796 16.881 31.1016 16.143C31.1016 18.645 30.6516 19.743 29.3556 19.743C28.4016 19.743 27.8796 19.239 27.6996 18.321H24.8556ZM29.1936 14.883C27.9876 14.883 27.4116 14.145 27.4116 13.155C27.4116 12.057 28.0596 11.373 29.1216 11.373C30.1656 11.373 30.8496 12.003 30.8496 13.173C30.8496 14.235 30.2016 14.883 29.1936 14.883ZM36.4299 18.321C36.5739 20.337 37.9599 22.227 40.8219 22.227C44.3499 22.227 45.3939 19.743 45.3939 15.261C45.3939 11.265 44.3499 8.72697 40.6059 8.72697C37.8159 8.72697 36.0879 10.455 36.0879 13.119C36.0879 15.909 37.8159 17.313 40.0659 17.313C41.1819 17.313 42.1539 16.881 42.6759 16.143C42.6759 18.645 42.2259 19.743 40.9299 19.743C39.9759 19.743 39.4539 19.239 39.2739 18.321H36.4299ZM40.7679 14.883C39.5619 14.883 38.9859 14.145 38.9859 13.155C38.9859 12.057 39.6339 11.373 40.6959 11.373C41.7399 11.373 42.4239 12.003 42.4239 13.173C42.4239 14.235 41.7759 14.883 40.7679 14.883ZM47.0681 24.891H49.0841L51.3701 19.059H48.2201L47.0681 24.891ZM59.3768 22.173H62.4548V19.833H63.9308V17.169H62.4548V9.21297H59.0168L53.3288 17.349V19.833H59.3768V22.173ZM56.5688 17.169L59.5928 12.597V17.169H56.5688ZM66.0464 12.741H69.0524C69.1064 12.021 69.4664 11.301 70.4564 11.301C71.2844 11.301 71.8064 11.787 71.8064 12.669C71.8064 13.857 70.7984 14.109 69.7544 14.109H69.1784V16.611H69.7544C71.3564 16.611 72.0584 17.079 72.0584 18.249C72.0584 19.113 71.5364 19.725 70.5824 19.725C69.4484 19.725 68.8904 19.041 68.8724 18.015H65.8844C65.9744 20.985 67.9544 22.281 70.6904 22.281C73.4444 22.281 75.0284 20.697 75.0284 18.483C75.0284 16.755 74.1284 15.747 72.8144 15.315V15.243C73.7144 14.937 74.7944 14.019 74.7944 12.291C74.7944 10.311 73.3004 8.72697 70.5284 8.72697C67.8464 8.72697 66.1544 10.149 66.0464 12.741Z" fill="#40BFFF"/>
</svg>
