<svg width="179" height="58" viewBox="0 0 179 58" fill="none" xmlns="http://www.w3.org/2000/svg">
<path d="M1.62184 22.5236H5.04184V16.8436H9.32184V14.1836H5.04184V11.2236H10.7618V8.48356H1.62184V22.5236ZM23.2593 18.3436C23.2593 13.6436 16.3193 14.7436 16.3193 12.3036C16.3193 11.4236 16.9393 11.0036 17.7593 11.0236C18.6793 11.0436 19.3193 11.5836 19.3793 12.4836H23.0793C22.9393 9.80356 20.8793 8.28356 17.8193 8.28356C14.8793 8.28356 12.6993 9.76356 12.6993 12.4236C12.6593 17.4036 19.6793 16.0036 19.6793 18.6036C19.6793 19.4236 19.0393 19.9236 18.0393 19.9236C17.0793 19.9236 16.3993 19.4036 16.2993 18.3236H12.6593C12.7593 21.1636 15.1193 22.6636 18.1393 22.6636C21.4193 22.6636 23.2593 20.7036 23.2593 18.3436ZM30.4023 16.9236H39.2023V14.0836H30.4023V16.9236ZM56.5821 8.48356V17.1836L50.8621 8.48356H47.4421V22.5236H50.8621V13.8636L56.5821 22.5236H60.0021V8.48356H56.5821ZM62.9812 22.5236H66.4012V11.3636H62.9812V22.5236ZM64.7012 10.2036C65.9012 10.2036 66.7212 9.38356 66.7212 8.36356C66.7212 7.32356 65.9012 6.50356 64.7012 6.50356C63.4812 6.50356 62.6612 7.32356 62.6612 8.36356C62.6612 9.38356 63.4812 10.2036 64.7012 10.2036ZM69.3796 22.5236H72.7996V17.8436L76.1996 22.5236H80.4396L75.7596 16.9636L80.3996 11.3636H76.1796L72.7996 15.9036V7.72356H69.3796V22.5236ZM87.1629 13.9436C88.3029 13.9436 89.2629 14.6436 89.2629 15.8636H84.9829C85.1829 14.6236 86.0429 13.9436 87.1629 13.9436ZM92.5029 18.8236H88.8629C88.5829 19.4236 88.0429 19.9036 87.0829 19.9036C85.9829 19.9036 85.0829 19.2236 84.9629 17.7636H92.7029C92.7429 17.4236 92.7629 17.0836 92.7629 16.7636C92.7629 13.3636 90.4629 11.2036 87.2029 11.2036C83.8829 11.2036 81.5629 13.4036 81.5629 16.9436C81.5629 20.4836 83.9229 22.6836 87.2029 22.6836C89.9829 22.6836 91.9629 21.0036 92.5029 18.8236ZM109.385 22.5236H113.005L107.925 8.48356H103.965L98.8854 22.5236H102.465L103.305 20.0436H108.545L109.385 22.5236ZM107.665 17.4036H104.205L105.925 12.2636L107.665 17.4036ZM115.052 22.5236H118.472V11.3636H115.052V22.5236ZM116.772 10.2036C117.972 10.2036 118.792 9.38356 118.792 8.36356C118.792 7.32356 117.972 6.50356 116.772 6.50356C115.552 6.50356 114.732 7.32356 114.732 8.36356C114.732 9.38356 115.552 10.2036 116.772 10.2036ZM124.87 17.3436C124.87 15.4236 125.81 14.8636 127.43 14.8636H128.37V11.2436C126.87 11.2436 125.65 12.0436 124.87 13.2236V11.3636H121.45V22.5236H124.87V17.3436ZM1.62184 52.5236H5.04184V44.0836L8.20184 52.5236H10.9618L14.1018 44.1036V52.5236H17.5218V38.4836H13.5018L9.60184 48.2036L5.66184 38.4836H1.62184V52.5236ZM19.8012 46.9236C19.8012 50.4436 21.9812 52.6836 24.7012 52.6836C26.3612 52.6836 27.5412 51.9236 28.1612 50.9436V52.5236H31.5812V41.3636H28.1612V42.9436C27.5612 41.9636 26.3812 41.2036 24.7212 41.2036C21.9812 41.2036 19.8012 43.4036 19.8012 46.9236ZM28.1612 46.9436C28.1612 48.7236 27.0212 49.7036 25.7212 49.7036C24.4412 49.7036 23.2812 48.7036 23.2812 46.9236C23.2812 45.1436 24.4412 44.1836 25.7212 44.1836C27.0212 44.1836 28.1612 45.1636 28.1612 46.9436ZM41.1554 52.5236H44.9954L41.1554 46.9836L44.8954 41.3636H41.1954L39.3954 44.4436L37.2554 41.3636H33.4154L37.1954 46.8236L33.5154 52.5236H37.2154L39.0154 49.4236L41.1554 52.5236ZM51.0915 52.3236H61.1315V49.5436H55.7315C58.0515 47.7636 60.9115 45.2036 60.9115 42.0036C60.9115 39.5436 59.4315 37.6036 56.1115 37.6036C53.4515 37.6036 51.1515 39.1236 51.0515 42.6636H54.3515C54.3515 41.2836 54.9515 40.4836 55.9715 40.4836C57.0115 40.4836 57.4915 41.1636 57.4915 42.2236C57.4915 44.6836 54.1915 47.2236 51.0915 49.7836V52.3236ZM62.7973 37.9436V40.8636H69.0173L63.9373 52.5236H67.4373L72.4573 40.4836V37.9436H62.7973ZM74.3404 45.0236C74.3404 49.3436 75.8004 52.4636 79.9604 52.4636C84.1204 52.4636 85.5804 49.3436 85.5804 45.0236C85.5804 40.7436 84.1204 37.6236 79.9604 37.6236C75.8004 37.6236 74.3404 40.7436 74.3404 45.0236ZM82.2204 45.0236C82.2204 47.3436 81.9804 49.2636 79.9604 49.2636C77.9404 49.2636 77.7004 47.3436 77.7004 45.0236C77.7004 42.7836 77.9404 40.8236 79.9604 40.8236C81.9804 40.8236 82.2204 42.7836 82.2204 45.0236ZM100.386 43.0436C100.386 44.1436 99.7856 44.8036 98.5056 44.8036H96.3856V41.3236H98.5056C99.7856 41.3236 100.386 42.0036 100.386 43.0436ZM92.9656 38.4836V52.5236H96.3856V47.2236H97.2056L100.126 52.5236H103.986L100.746 46.9636C102.906 46.3236 103.866 44.6636 103.866 42.9036C103.866 40.4636 102.146 38.4836 98.7056 38.4836H92.9656ZM111.432 43.9436C112.572 43.9436 113.532 44.6436 113.532 45.8636H109.252C109.452 44.6236 110.312 43.9436 111.432 43.9436ZM116.772 48.8236H113.132C112.852 49.4236 112.312 49.9036 111.352 49.9036C110.252 49.9036 109.352 49.2236 109.232 47.7636H116.972C117.012 47.4236 117.032 47.0836 117.032 46.7636C117.032 43.3636 114.732 41.2036 111.472 41.2036C108.152 41.2036 105.832 43.4036 105.832 46.9436C105.832 50.4836 108.192 52.6836 111.472 52.6836C114.252 52.6836 116.232 51.0036 116.772 48.8236ZM118.657 46.9236C118.657 50.4436 120.837 52.6836 123.557 52.6836C125.217 52.6836 126.397 51.9236 127.017 50.9436V52.5236H130.437V41.3636H127.017V42.9436C126.417 41.9636 125.237 41.2036 123.577 41.2036C120.837 41.2036 118.657 43.4036 118.657 46.9236ZM127.017 46.9436C127.017 48.7236 125.877 49.7036 124.577 49.7036C123.297 49.7036 122.137 48.7036 122.137 46.9236C122.137 45.1436 123.297 44.1836 124.577 44.1836C125.877 44.1836 127.017 45.1636 127.017 46.9436ZM132.731 46.9436C132.731 50.4836 135.051 52.6836 138.331 52.6836C141.131 52.6836 143.111 51.0636 143.691 48.4836H140.051C139.751 49.3036 139.211 49.7636 138.271 49.7636C137.051 49.7636 136.211 48.8036 136.211 46.9436C136.211 45.0836 137.051 44.1236 138.271 44.1236C139.211 44.1236 139.771 44.6236 140.051 45.4036H143.691C143.111 42.7436 141.131 41.2036 138.331 41.2036C135.051 41.2036 132.731 43.4236 132.731 46.9436ZM146.56 48.6436C146.56 51.5436 148.18 52.5236 150.5 52.5236H152.24V49.6236H151.02C150.26 49.6236 149.98 49.3436 149.98 48.6836V44.2036H152.22V41.3636H149.98V38.6436H146.56V41.3636H145.2V44.2036H146.56V48.6436ZM158.265 50.8436C158.265 49.7836 157.445 48.9636 156.245 48.9636C155.025 48.9636 154.205 49.7836 154.205 50.8436C154.205 51.8636 155.025 52.6836 156.245 52.6836C157.445 52.6836 158.265 51.8636 158.265 50.8436ZM164.41 50.8436C164.41 49.7836 163.59 48.9636 162.39 48.9636C161.17 48.9636 160.35 49.7836 160.35 50.8436C160.35 51.8636 161.17 52.6836 162.39 52.6836C163.59 52.6836 164.41 51.8636 164.41 50.8436ZM170.554 50.8436C170.554 49.7836 169.734 48.9636 168.534 48.9636C167.314 48.9636 166.494 49.7836 166.494 50.8436C166.494 51.8636 167.314 52.6836 168.534 52.6836C169.734 52.6836 170.554 51.8636 170.554 50.8436Z" fill="#223263"/>
</svg>
