<svg width="217" height="15" viewBox="0 0 217 15" fill="none" xmlns="http://www.w3.org/2000/svg">
<path d="M8.67696 2.08629V9.91629L3.52896 2.08629H0.450961V14.7223H3.52896V6.92829L8.67696 14.7223H11.755V2.08629H8.67696ZM14.4861 14.7223H17.5641V4.67829H14.4861V14.7223ZM16.0341 3.63429C17.1141 3.63429 17.8521 2.89629 17.8521 1.97829C17.8521 1.04229 17.1141 0.304289 16.0341 0.304289C14.9361 0.304289 14.1981 1.04229 14.1981 1.97829C14.1981 2.89629 14.9361 3.63429 16.0341 3.63429ZM20.2947 14.7223H23.3727V10.5103L26.4327 14.7223H30.2487L26.0367 9.71829L30.2127 4.67829H26.4147L23.3727 8.76429V1.40229H20.2947V14.7223ZM36.3497 7.00029C37.3757 7.00029 38.2397 7.63029 38.2397 8.72829H34.3877C34.5677 7.61229 35.3417 7.00029 36.3497 7.00029ZM41.1557 11.3923H37.8797C37.6277 11.9323 37.1417 12.3643 36.2777 12.3643C35.2877 12.3643 34.4777 11.7523 34.3697 10.4383H41.3357C41.3717 10.1323 41.3897 9.82629 41.3897 9.53829C41.3897 6.47829 39.3197 4.53429 36.3857 4.53429C33.3977 4.53429 31.3097 6.51429 31.3097 9.70029C31.3097 12.8863 33.4337 14.8663 36.3857 14.8663C38.8877 14.8663 40.6697 13.3543 41.1557 11.3923ZM56.4499 14.7223H59.7079L55.1359 2.08629H51.5719L46.9999 14.7223H50.2219L50.9779 12.4903H55.6939L56.4499 14.7223ZM54.9019 10.1143H51.7879L53.3359 5.48829L54.9019 10.1143ZM61.5994 14.7223H64.6774V4.67829H61.5994V14.7223ZM63.1474 3.63429C64.2274 3.63429 64.9654 2.89629 64.9654 1.97829C64.9654 1.04229 64.2274 0.304289 63.1474 0.304289C62.0494 0.304289 61.3114 1.04229 61.3114 1.97829C61.3114 2.89629 62.0494 3.63429 63.1474 3.63429ZM70.486 10.0603C70.486 8.33229 71.332 7.82829 72.79 7.82829H73.636V4.57029C72.286 4.57029 71.188 5.29029 70.486 6.35229V4.67829H67.408V14.7223H70.486V10.0603ZM79.9217 14.7223H82.9997V7.12629L85.8437 14.7223H88.3277L91.1537 7.14429V14.7223H94.2317V2.08629H90.6137L87.1037 10.8343L83.5577 2.08629H79.9217V14.7223ZM96.3331 9.68229C96.3331 12.8503 98.2951 14.8663 100.743 14.8663C102.237 14.8663 103.299 14.1823 103.857 13.3003V14.7223H106.935V4.67829H103.857V6.10029C103.317 5.21829 102.255 4.53429 100.761 4.53429C98.2951 4.53429 96.3331 6.51429 96.3331 9.68229ZM103.857 9.70029C103.857 11.3023 102.831 12.1843 101.661 12.1843C100.509 12.1843 99.4651 11.2843 99.4651 9.68229C99.4651 8.08029 100.509 7.21629 101.661 7.21629C102.831 7.21629 103.857 8.09829 103.857 9.70029ZM115.602 14.7223H119.058L115.602 9.73629L118.968 4.67829H115.638L114.018 7.45029L112.092 4.67829H108.636L112.038 9.59229L108.726 14.7223H112.056L113.676 11.9323L115.602 14.7223ZM124.644 14.5423H133.68V12.0403H128.82C130.908 10.4383 133.482 8.13429 133.482 5.25429C133.482 3.04029 132.15 1.29429 129.162 1.29429C126.768 1.29429 124.698 2.66229 124.608 5.84829H127.578C127.578 4.60629 128.118 3.88629 129.036 3.88629C129.972 3.88629 130.404 4.49829 130.404 5.45229C130.404 7.66629 127.434 9.95229 124.644 12.2563V14.5423ZM135.23 1.60029V4.22829H140.828L136.256 14.7223H139.406L143.924 3.88629V1.60029H135.23ZM145.668 7.97229C145.668 11.8603 146.982 14.6683 150.726 14.6683C154.47 14.6683 155.784 11.8603 155.784 7.97229C155.784 4.12029 154.47 1.31229 150.726 1.31229C146.982 1.31229 145.668 4.12029 145.668 7.97229ZM152.76 7.97229C152.76 10.0603 152.544 11.7883 150.726 11.7883C148.908 11.7883 148.692 10.0603 148.692 7.97229C148.692 5.95629 148.908 4.19229 150.726 4.19229C152.544 4.19229 152.76 5.95629 152.76 7.97229ZM169.209 6.19029C169.209 7.18029 168.669 7.77429 167.517 7.77429H165.609V4.64229H167.517C168.669 4.64229 169.209 5.25429 169.209 6.19029ZM162.531 2.08629V14.7223H165.609V9.95229H166.347L168.975 14.7223H172.449L169.533 9.71829C171.477 9.14229 172.341 7.64829 172.341 6.06429C172.341 3.86829 170.793 2.08629 167.697 2.08629H162.531ZM179.201 7.00029C180.227 7.00029 181.091 7.63029 181.091 8.72829H177.239C177.419 7.61229 178.193 7.00029 179.201 7.00029ZM184.007 11.3923H180.731C180.479 11.9323 179.993 12.3643 179.129 12.3643C178.139 12.3643 177.329 11.7523 177.221 10.4383H184.187C184.223 10.1323 184.241 9.82629 184.241 9.53829C184.241 6.47829 182.171 4.53429 179.237 4.53429C176.249 4.53429 174.161 6.51429 174.161 9.70029C174.161 12.8863 176.285 14.8663 179.237 14.8663C181.739 14.8663 183.521 13.3543 184.007 11.3923ZM185.753 9.68229C185.753 12.8503 187.715 14.8663 190.163 14.8663C191.657 14.8663 192.719 14.1823 193.277 13.3003V14.7223H196.355V4.67829H193.277V6.10029C192.737 5.21829 191.675 4.53429 190.181 4.53429C187.715 4.53429 185.753 6.51429 185.753 9.68229ZM193.277 9.70029C193.277 11.3023 192.251 12.1843 191.081 12.1843C189.929 12.1843 188.885 11.2843 188.885 9.68229C188.885 8.08029 189.929 7.21629 191.081 7.21629C192.251 7.21629 193.277 8.09829 193.277 9.70029ZM198.47 9.70029C198.47 12.8863 200.558 14.8663 203.51 14.8663C206.03 14.8663 207.812 13.4083 208.334 11.0863H205.058C204.788 11.8243 204.302 12.2383 203.456 12.2383C202.358 12.2383 201.602 11.3743 201.602 9.70029C201.602 8.02629 202.358 7.16229 203.456 7.16229C204.302 7.16229 204.806 7.61229 205.058 8.31429H208.334C207.812 5.92029 206.03 4.53429 203.51 4.53429C200.558 4.53429 198.47 6.53229 198.47 9.70029ZM210.966 11.2303C210.966 13.8403 212.424 14.7223 214.512 14.7223H216.078V12.1123H214.98C214.296 12.1123 214.044 11.8603 214.044 11.2663V7.23429H216.06V4.67829H214.044V2.23029H210.966V4.67829H209.742V7.23429H210.966V11.2303Z" fill="#223263"/>
</svg>
